# AST/ASF file generated using VICON BodyLanguage
# -----------------------------------------------
:version 1.10
:name VICON
:units
  mass 1.0
  length 0.45
  angle deg
:documentation
   .ast/.asf automatically generated from VICON data using
   VICON BodyBuilder and BodyLanguage model FoxedUp or BRILLIANT.MOD
:root
   order TX TY TZ RX RY RZ
   axis XYZ
   position 0 0 0  
   orientation 0 0 0 
:bonedata
  begin
     id 1 
     name lhipjoint
     direction 0.567725 -0.736092 0.368589 
     length 2.42353 
     axis 0 0 0  XYZ
  end
  begin
     id 2 
     name lfemur
     direction 0.34202 -0.939693 0  
     length 7.24894  
     axis 0 0 20  XYZ
    dof rx ry rz
    limits (-160.0 20.0)
           (-70.0 70.0)
           (-60.0 70.0)
  end
  begin
     id 3 
     name ltibia
     direction 0.34202 -0.939693 0   
     length 7.6997   
     axis 0 0 20   XYZ
    dof rx
    limits (-10.0 170.0)
  end
  begin
     id 4 
     name lfoot
     direction 0.100767 -0.276854 0.955614   
     length 2.37556   
     axis -90 7.62852e-016 20   XYZ
    dof rx rz
    limits (-45.0 90.0)
           (-70.0 20.0)
  end
  begin
     id 5 
     name ltoes
     direction 1.53592e-011 -4.21894e-011 1   
     length 1.18363   
     axis -90 7.62852e-016 20   XYZ
    dof rx
    limits (-90.0 20.0)
  end
  begin
     id 6 
     name rhipjoint
     direction -0.556459 -0.742938 0.372017   
     length 2.4012  
     axis 0 0 0  XYZ 
  end
  begin
     id 7 
     name rfemur
     direction -0.34202 -0.939693 0   
     length 7.5119   
     axis 0 0 -20   XYZ
    dof rx ry rz
    limits (-160.0 20.0)
           (-70.0 70.0)
           (-70.0 60.0)
  end
  begin
     id 8 
     name rtibia
     direction -0.34202 -0.939693 0   
     length 7.50155   
     axis 0 0 -20   XYZ
    dof rx
    limits (-10.0 170.0)
 end
 begin
     id 9 
     name rfoot
     direction -0.118427 -0.325376 0.938139   
     length 2.32487  
     axis -90 -7.62852e-016 -20   XYZ
    dof rx rz
    limits (-45.0 90.0)
           (-20.0 70.0)
  end
  begin
     id 10 
     name rtoes
     direction -1.53525e-011 -4.21868e-011 1   
     length 1.15233   
     axis -90 -7.62852e-016 -20   XYZ
    dof rx
    limits (-90.0 20.0)
  end
  begin
     id 11 
     name lowerback
     direction 0.0287568 0.999577 -0.00434502   
     length 2.15243   
     axis 0 0 0   XYZ
    dof rx ry rz
    limits (-20.0 45.0)
           (-30.0 30.0)
           (-30.0 30.0)
  end
  begin
     id 12 
     name upperback
     direction 0.0294009 0.99956 0.00404628   
     length 2.15427   
     axis 0 0 0   XYZ
    dof rx ry rz
    limits (-20.0 45.0)
           (-30.0 30.0)
           (-30.0 30.0)
  end
  begin
     id 13 
     name thorax
     direction 0.0151014 0.999868 0.0059419   
     length 2.14898   
     axis 0 0 0   XYZ
    dof rx ry rz
    limits (-20.0 45.0)
           (-30.0 30.0)
           (-30.0 30.0)
  end
  begin
     id 14 
     name lowerneck
     direction -0.0249197 0.989906 0.139515   
     length 1.6861   
     axis 0 0 0   XYZ
    dof rx ry rz
    limits (-20.0 45.0)
           (-30.0 30.0)
           (-30.0 30.0)
  end
  begin
     id 15 
     name upperneck
     direction 0.0438463 0.988795 -0.142693   
     length 1.71276   
     axis 0 0 0   XYZ
    dof rx ry rz
    limits (-20.0 45.0)
           (-30.0 30.0)
           (-30.0 30.0)
  end
  begin
     id 16
     name head
     direction 0.0148499 0.997845 -0.0639186  
     length 1.7209  
     axis 0 0 0   XYZ
    dof rx ry rz
    limits (-20.0 45.0)
           (-30.0 30.0)
           (-30.0 30.0)
  end
  begin
     id 17 
     name lclavicle
     direction 0.940298 0.323464 -0.105876  
     length 3.9048  
     axis 0 0 0   XYZ
    dof ry rz
    limits (-20.0 10.0)
           (0.0 20.0)
  end
  begin
     id 18 
     name lhumerus
     direction 1 -4.48954e-011 -4.9675e-028   
     length 4.6851   
     axis 180 -30 -90   XYZ
    dof rx ry rz
    limits (-60.0 90.0)
           (-90.0 90.0)
           (-90.0 90.0)
  end
  begin
     id 19
     name lradius
     direction 1 -4.48992e-011 -1.03359e-026   
     length 3.39626   
     axis 180 -30 -90   XYZ
    dof rx
    limits (-10.0 170.0)
  end
  begin
     id 20
     name lwrist
     direction 1 -4.48906e-011 -1.67336e-026   
     length 1.69813   
     axis 9.90442e-015 90 90   XYZ
    dof ry
    limits (-180.0 0.0)
 end
  begin
     id 21 
     name lhand
     direction 1 -4.49006e-011 -3.34673e-026   
     length 0.486078   
     axis 2.1355e-014 90 90   XYZ
    dof rx rz
    limits (-90.0 90.0)
           (-45.0 45.0)
  end
  begin
     id 22 
     name lfingers
     direction 1 -4.48992e-011 -6.69345e-026   
     length 0.391889   
     axis 4.27099e-014 90 90   XYZ
    dof rx
    limits (0.0 90.0)
  end
  begin
     id 23
     name lthumb
     direction 0.707107 -6.34926e-011 0.707107   
     length 0.562676   
     axis -90 45 2.85299e-015   XYZ
    dof rx rz
    limits (-45.0 45.0)
           (-45.0 45.0)
  end
  begin
     id 24 
     name rclavicle
     direction -0.882459 0.414895 -0.221648   
     length 3.44646  
     axis 0 0 0   XYZ 
    dof ry rz
    limits (-10.0 20.0)
           (-20.0 0.0)
  end
  begin
     id 25 
     name rhumerus
     direction -1 -4.48962e-011 -2.37984e-027  
     length 5.55576   
     axis 180 30 90   XYZ
    dof rx ry rz
    limits (-90.0 60.0)
           (-90.0 90.0)
           (-90.0 90.0)
  end
  begin
     id 26 
     name rradius
     direction -1 -4.48982e-011 -6.86791e-027   
     length 3.32774   
     axis 180 30 90   XYZ
    dof rx
    limits (-10.0 170.0)
  end
  begin
     id 27 
     name rwrist
     direction -1 -4.48961e-011 -1.67336e-026   
     length 1.66387   
     axis 9.90442e-015 -90 -90   XYZ
    dof ry
    limits (-180.0 0.0)
  end
  begin
     id 28
     name rhand
     direction -1 -4.4897e-011 -3.34673e-026   
     length 0.507628   
     axis 2.1355e-014 -90 -90   XYZ
    dof rx rz
    limits (-90.0 90.0)
           (-45.0 45.0)
  end
  begin
     id 29
     name rfingers
     direction -1 -4.48854e-011 -6.69345e-026   
     length 0.409263   
     axis 4.27099e-014 -90 -90   XYZ
    dof rx
    limits (0.0 90.0)
  end
  begin
     id 30
     name rthumb
     direction -0.707107 -6.34913e-011 0.707107   
     length 0.587622   
     axis -90 -45 -2.85299e-015   XYZ
    dof rx rz
    limits (-45.0 45.0)
           (-45.0 45.0)
  end
:hierarchy
  begin
    root lhipjoint rhipjoint lowerback
    lhipjoint lfemur
    lfemur ltibia
    ltibia lfoot
    lfoot ltoes
    rhipjoint rfemur
    rfemur rtibia
    rtibia rfoot
    rfoot rtoes
    lowerback upperback
    upperback thorax
    thorax lowerneck lclavicle rclavicle
    lowerneck upperneck
    upperneck head
    lclavicle lhumerus
    lhumerus lradius
    lradius lwrist
    lwrist lhand lthumb
    lhand lfingers
    rclavicle rhumerus
    rhumerus rradius
    rradius rwrist
    rwrist rhand rthumb
    rhand rfingers
  end

#!OML:ASF E:\motion texture\Top Level 1\Subject 1\Session 1\male.ASF
:FULLY-SPECIFIED
:DEGREES
104
root 34.2389 17.1726 3.55928 22.9655 -81.7786 -14.5179
lowerback 9.6017 1.1848 -1.76561
upperback 1.72285 1.21524 -2.56497
thorax -3.57341 0.579317 -1.81885
lowerneck -15.3012 -1.82691 -6.76222
upperneck 3.85544 -2.29896 12.555
head 3.88523 -0.620892 4.83151
rclavicle -5.20816e-014 5.88403e-014
rhumerus 10.0381 31.8471 -73.9864
rradius 81.3736
rwrist 19.882
rhand -23.6444 -21.3236
rfingers 7.12502
rthumb 2.82076 -51.2847
lclavicle -5.20816e-014 5.88403e-014
lhumerus 5.29151 -22.9988 93.4118
lradius 65.3315
lwrist 8.52677
lhand -9.88705 30.043
lfingers 7.12502
lthumb 16.0924 59.3948
rfemur -37.8242 -12.6338 22.6356
rtibia 58.6753
rfoot -4.47359 -19.7242
rtoes 7.01539
lfemur -27.6887 -5.35106 -16.9042
ltibia 37.0176
lfoot -17.8649 -2.07744
ltoes -4.0991
105
root 34.1061 17.1599 3.54473 21.9219 -81.5504 -13.448
lowerback 9.98847 1.10909 -1.91567
upperback 1.82653 1.07852 -2.64283
thorax -3.68401 0.510082 -1.80549
lowerneck -15.1399 -1.81778 -6.78673
upperneck 3.60282 -2.28324 12.7072
head 3.78499 -0.618282 4.88267
rclavicle -1.15295e-014 -2.46493e-014
rhumerus 11.5353 31.8331 -73.3038
rradius 81.5028
rwrist 19.8829
rhand -23.892 -21.5593
rfingers 7.12502
rthumb 2.5817 -51.5234
lclavicle -1.15295e-014 -2.46493e-014
lhumerus 6.92406 -23.611 93.167
lradius 65.8933
lwrist 9.84111
lhand -9.69572 30.3111
lfingers 7.12502
lthumb 16.2766 59.6479
rfemur -38.7185 -12.6565 22.6386
rtibia 57.4994
rfoot -4.82065 -19.7192
rtoes 7.11749
lfemur -27.3685 -5.49538 -16.9602
ltibia 37.2819
lfoot -18.3381 -2.13119
ltoes -4.13829
106
root 33.9718 17.1467 3.52928 21.025 -81.3338 -12.5067
lowerback 10.3596 1.03834 -2.06126
upperback 1.9277 0.948143 -2.71895
thorax -3.78777 0.444042 -1.79227
lowerneck -14.9753 -1.80789 -6.81776
upperneck 3.342 -2.26418 12.8605
head 3.68164 -0.614767 4.9355
rclavicle 1.03368e-014 1.59028e-015
rhumerus 13.0303 31.7896 -72.6387
rradius 81.6243
rwrist 19.8907
rhand -24.1245 -21.7812
rfingers 7.12502
rthumb 2.35712 -51.748
lclavicle 1.03368e-014 1.59028e-015
lhumerus 8.54512 -24.1648 92.9105
lradius 66.4623
lwrist 11.1519
lhand -9.50243 30.5858
lfingers 7.12502
lthumb 16.4628 59.9073
rfemur -39.5683 -12.6503 22.6441
rtibia 56.212
rfoot -5.09865 -19.653
rtoes 7.14959
lfemur -27.0554 -5.63149 -16.998
ltibia 37.5331
lfoot -18.8073 -2.17027
ltoes -4.18789
107
root 33.836 17.1332 3.51282 20.269 -81.1281 -11.6889
lowerback 10.7152 0.97224 -2.20146
upperback 2.0258 0.823982 -2.79308
thorax -3.88536 0.381136 -1.77957
lowerneck -14.809 -1.79763 -6.85469
upperneck 3.07522 -2.24262 13.0152
head 3.57622 -0.61063 4.98992
rclavicle -2.06736e-014 1.90833e-014
rhumerus 14.5116 31.7183 -71.9957
rradius 81.7427
rwrist 19.903
rhand -24.3515 -21.9885
rfingers 7.12502
rthumb 2.13784 -51.9576
lclavicle -2.06736e-014 1.90833e-014
lhumerus 10.149 -24.6622 92.6451
lradius 67.0374
lwrist 12.4562
lhand -9.31007 30.87
lfingers 7.12502
lthumb 16.6479 60.176
rfemur -40.3708 -12.6147 22.6532
rtibia 54.8254
rfoot -5.30392 -19.5287
rtoes 7.10331
lfemur -26.7481 -5.7589 -17.0151
ltibia 37.7712
lfoot -19.2699 -2.19551
ltoes -4.25474
108
root 33.6984 17.1194 3.49539 19.6368 -80.9345 -10.9775
lowerback 11.0541 0.911176 -2.3376
upperback 2.1198 0.706613 -2.86503
thorax -3.97729 0.321673 -1.76668
lowerneck -14.639 -1.78692 -6.89764
upperneck 2.80254 -2.21838 13.1701
head 3.46835 -0.605893 5.04562
rclavicle 3.18055e-015 7.95139e-015
rhumerus 15.9805 31.6201 -71.3765
rradius 81.8587
rwrist 19.9178
rhand -24.5568 -22.1916
rfingers 7.12502
rthumb 1.93962 -52.1626
lclavicle 3.18055e-015 7.95139e-015
lhumerus 11.7297 -25.1052 92.3761
lradius 67.616
lwrist 13.7471
lhand -9.12439 31.1611
lfingers 7.12502
lthumb 16.8267 60.452
rfemur -41.1274 -12.5521 22.6648
rtibia 53.3555
rfoot -5.43198 -19.3479
rtoes 6.9531
lfemur -26.4474 -5.8783 -17.013
ltibia 37.9974
lfoot -19.7264 -2.20746
ltoes -4.33955
109
root 33.5589 17.1053 3.47697 19.1171 -80.7523 -10.3618
lowerback 11.3759 0.854915 -2.46979
upperback 2.20986 0.595886 -2.93476
thorax -4.06325 0.265577 -1.75362
lowerneck -14.4672 -1.77679 -6.94743
upperneck 2.52613 -2.19298 13.3268
head 3.35919 -0.60113 5.1031
rclavicle 3.97569e-015 -2.70347e-014
rhumerus 17.4321 31.4942 -70.7845
rradius 81.972
rwrist 19.9362
rhand -24.752 -22.3895
rfingers 7.12502
rthumb 1.75105 -52.362
lclavicle 3.97569e-015 -2.70347e-014
lhumerus 13.2834 -25.4962 92.1054
lradius 68.195
lwrist 15.0159
lhand -8.94157 31.456
lfingers 7.12502
lthumb 17.0027 60.7318
rfemur -41.8384 -12.4651 22.6796
rtibia 51.8192
rfoot -5.46236 -19.1133
rtoes 6.71028
lfemur -26.1515 -5.98705 -16.9912
ltibia 38.2104
lfoot -20.1739 -2.21047
ltoes -4.4488
110
root 33.4175 17.091 3.45755 18.6973 -80.5833 -9.83019
lowerback 11.6808 0.804045 -2.59918
upperback 2.29588 0.492547 -3.0025
thorax -4.14351 0.213221 -1.74021
lowerneck -14.2931 -1.76726 -7.00395
upperneck 2.24533 -2.16646 13.4848
head 3.24849 -0.596383 5.16226
rclavicle -1.07344e-014 -6.99722e-014
rhumerus 18.864 31.3419 -70.2217
rradius 82.0852
rwrist 19.9579
rhand -24.9356 -22.5844
rfingers 7.12502
rthumb 1.57375 -52.5584
lclavicle -1.07344e-014 -6.99722e-014
lhumerus 14.8068 -25.8372 91.8363
lradius 68.7711
lwrist 16.2537
lhand -8.7672 31.7514
lfingers 7.12502
lthumb 17.1705 61.0127
rfemur -42.5063 -12.352 22.6957
rtibia 50.2397
rfoot -5.38387 -18.8441
rtoes 6.46173
lfemur -25.8602 -6.08453 -16.9509
ltibia 38.4123
lfoot -20.6106 -2.20563
ltoes -4.58591
111
root 33.2742 17.0766 3.43707 18.3633 -80.4273 -9.3695
lowerback 11.9698 0.758523 -2.72783
upperback 2.37804 0.396357 -3.06801
thorax -4.21846 0.164502 -1.72517
lowerneck -14.1183 -1.75754 -7.06657
upperneck 1.96058 -2.13772 13.6428
head 3.13644 -0.591097 5.22262
rclavicle 8.34896e-015 -2.70347e-014
rhumerus 20.2754 31.1633 -69.6891
rradius 82.1979
rwrist 19.9861
rhand -25.1138 -22.7772
rfingers 7.12502
rthumb 1.40166 -52.7524
lclavicle 8.34896e-015 -2.70347e-014
lhumerus 16.2972 -26.1292 91.5706
lradius 69.342
lwrist 17.4509
lhand -8.60057 32.0428
lfingers 7.12502
lthumb 17.3309 61.2901
rfemur -43.1325 -12.2148 22.7127
rtibia 48.6327
rfoot -5.20633 -18.5541
rtoes 6.25041
lfemur -25.5746 -6.17048 -16.893
ltibia 38.6064
lfoot -21.0353 -2.19579
ltoes -4.75377
112
root 33.1287 17.0623 3.41552 18.1202 -80.2841 -8.98672
lowerback 12.2464 0.717324 -2.85241
upperback 2.45482 0.306216 -3.132
thorax -4.29177 0.118863 -1.71114
lowerneck -13.9439 -1.74809 -7.13497
upperneck 1.6759 -2.10793 13.802
head 3.02459 -0.585622 5.2845
rclavicle 3.37934e-014 -7.95139e-015
rhumerus 21.6612 30.9613 -69.1935
rradius 82.3106
rwrist 20.0238
rhand -25.2839 -22.9642
rfingers 7.12502
rthumb 1.23742 -52.9404
lclavicle 3.37934e-014 -7.95139e-015
lhumerus 17.7496 -26.3731 91.308
lradius 69.9051
lwrist 18.599
lhand -8.444 32.3296
lfingers 7.12502
lthumb 17.4816 61.5636
rfemur -43.7177 -12.0551 22.7341
rtibia 47.0115
rfoot -4.95985 -18.239
rtoes 6.06276
lfemur -25.2946 -6.24319 -16.8152
ltibia 38.7963
lfoot -21.446 -2.18294
ltoes -4.96284
113
root 32.9812 17.0481 3.39292 17.9574 -80.155 -8.67234
lowerback 12.5087 0.68168 -2.97531
upperback 2.52884 0.223743 -3.19355
thorax -4.3596 0.0770813 -1.69607
lowerneck -13.7734 -1.73937 -7.20663
upperneck 1.39043 -2.07758 13.9573
head 2.91315 -0.580272 5.3458
rclavicle -5.1684e-015 1.90833e-014
rhumerus 23.023 30.7348 -68.7305
rradius 82.4241
rwrist 20.0752
rhand -25.4522 -23.1494
rfingers 7.12502
rthumb 1.07482 -53.1265
lclavicle -5.1684e-015 1.90833e-014
lhumerus 19.1652 -26.5713 91.0509
lradius 70.458
lwrist 19.6837
lhand -8.28921 32.6057
lfingers 7.12502
lthumb 17.6305 61.8263
rfemur -44.2635 -11.8733 22.7588
rtibia 45.3921
rfoot -4.67924 -17.9019
rtoes 5.83145
lfemur -25.0195 -6.30036 -16.7187
ltibia 38.983
lfoot -21.8385 -2.17346
ltoes -5.21576
114
root 32.8317 17.0343 3.3693 17.8793 -80.0399 -8.43128
lowerback 12.7582 0.651307 -3.09477
upperback 2.59854 0.148767 -3.25275
thorax -4.4245 0.0390839 -1.68119
lowerneck -13.6058 -1.73112 -7.28148
upperneck 1.10409 -2.0465 14.1097
head 2.8019 -0.574925 5.40689
rclavicle 1.19271e-015 3.49861e-014
rhumerus 24.3578 30.4841 -68.3046
rradius 82.5389
rwrist 20.1448
rhand -25.6129 -23.3323
rfingers 7.12502
rthumb 0.919624 -53.3101
lclavicle 1.19271e-015 3.49861e-014
lhumerus 20.5397 -26.7259 90.8009
lradius 70.9987
lwrist 20.7011
lhand -8.14277 32.8768
lfingers 7.12502
lthumb 17.7715 62.0847
rfemur -44.7728 -11.6693 22.7887
rtibia 43.7923
rfoot -4.36764 -17.5463
rtoes 5.60587
lfemur -24.753 -6.34255 -16.6011
ltibia 39.1729
lfoot -22.21 -2.17045
ltoes -5.51259
